<?xml version="1.0" encoding="UTF-8" standalone="no"?>
<!DOCTYPE svg PUBLIC "-//W3C//DTD SVG 1.1//EN"
 "http://www.w3.org/Graphics/SVG/1.1/DTD/svg11.dtd">
<!-- Generated by graphviz version 2.43.0 (0)
 -->
<!-- Title: G Pages: 1 -->
<svg width="648pt" height="436pt"
 viewBox="0.00 0.00 648.10 436.13" xmlns="http://www.w3.org/2000/svg" xmlns:xlink="http://www.w3.org/1999/xlink">
<g id="graph0" class="graph" transform="scale(1 1) rotate(0) translate(4 432.13)">
<title>G</title><style>.edge>path:hover{stroke-width:8}</style>
<polygon fill="white" stroke="transparent" points="-4,4 -4,-432.13 644.1,-432.13 644.1,4 -4,4"/>
<!-- zerorpc -->
<g id="node1" class="node">
<title>zerorpc</title><style>.edge>path:hover{stroke-width:8}</style>
<polygon fill="blue" stroke="black" points="358.5,-36 304.5,-36 304.5,0 358.5,0 358.5,-36"/>
<text text-anchor="middle" x="331.5" y="-15.5" font-family="Helvetica,sans-Serif" font-size="10.00" fill="white">zerorpc</text>
</g>
<!-- zerorpc_channel -->
<g id="node2" class="node">
<title>zerorpc_channel</title><style>.edge>path:hover{stroke-width:8}</style>
<ellipse fill="#c43131" stroke="black" cx="130.5" cy="-171.64" rx="39.7" ry="21.43"/>
<text text-anchor="middle" x="130.5" y="-174.64" font-family="Helvetica,sans-Serif" font-size="10.00" fill="#ffffff">zerorpc.</text>
<text text-anchor="middle" x="130.5" y="-163.64" font-family="Helvetica,sans-Serif" font-size="10.00" fill="#ffffff">channel</text>
</g>
<!-- zerorpc_channel&#45;&gt;zerorpc -->
<g id="edge1" class="edge">
<title>zerorpc_channel&#45;&gt;zerorpc</title><style>.edge>path:hover{stroke-width:8}</style>
<path fill="none" stroke="black" d="M103.35,-155.99C82.27,-142.4 57.53,-120.36 63.5,-94.21"/>
</g>
<!-- zerorpc_core -->
<g id="node5" class="node">
<title>zerorpc_core</title><style>.edge>path:hover{stroke-width:8}</style>
<polygon fill="blue" stroke="black" points="169,-111.21 92,-111.21 92,-75.21 169,-75.21 169,-111.21"/>
<text text-anchor="middle" x="130.5" y="-90.71" font-family="Helvetica,sans-Serif" font-size="10.00" fill="white">zerorpc.core</text>
</g>
<!-- zerorpc_channel&#45;&gt;zerorpc_core -->
<g id="edge2" class="edge">
<title>zerorpc_channel&#45;&gt;zerorpc_core</title><style>.edge>path:hover{stroke-width:8}</style>
<path fill="none" stroke="black" d="M130.5,-150.16C130.5,-141.42 130.5,-131.09 130.5,-121.7"/>
<polygon fill="#c43131" stroke="black" points="134,-121.64 130.5,-111.64 127,-121.64 134,-121.64"/>
</g>
<!-- zerorpc_channel_base -->
<g id="node3" class="node">
<title>zerorpc_channel_base</title><style>.edge>path:hover{stroke-width:8}</style>
<ellipse fill="#db2f2f" stroke="black" cx="175.5" cy="-328.49" rx="58.88" ry="21.43"/>
<text text-anchor="middle" x="175.5" y="-331.49" font-family="Helvetica,sans-Serif" font-size="10.00" fill="#ffffff">zerorpc.</text>
<text text-anchor="middle" x="175.5" y="-320.49" font-family="Helvetica,sans-Serif" font-size="10.00" fill="#ffffff">channel_base</text>
</g>
<!-- zerorpc_channel_base&#45;&gt;zerorpc_channel -->
<g id="edge3" class="edge">
<title>zerorpc_channel_base&#45;&gt;zerorpc_channel</title><style>.edge>path:hover{stroke-width:8}</style>
<path fill="none" stroke="black" d="M172.36,-307.17C168.97,-287.02 162.9,-255.39 154.5,-228.85 151.63,-219.81 147.85,-210.23 144.13,-201.59"/>
<polygon fill="#db2f2f" stroke="black" points="147.27,-200.04 140.01,-192.32 140.87,-202.88 147.27,-200.04"/>
</g>
<!-- zerorpc_events -->
<g id="node7" class="node">
<title>zerorpc_events</title><style>.edge>path:hover{stroke-width:8}</style>
<polygon fill="blue" stroke="black" points="300,-268.07 211,-268.07 211,-232.07 300,-232.07 300,-268.07"/>
<text text-anchor="middle" x="255.5" y="-247.57" font-family="Helvetica,sans-Serif" font-size="10.00" fill="white">zerorpc.events</text>
</g>
<!-- zerorpc_channel_base&#45;&gt;zerorpc_events -->
<g id="edge4" class="edge">
<title>zerorpc_channel_base&#45;&gt;zerorpc_events</title><style>.edge>path:hover{stroke-width:8}</style>
<path fill="none" stroke="black" d="M195.68,-308.21C206.14,-298.22 219.01,-285.92 230.13,-275.3"/>
<polygon fill="#db2f2f" stroke="black" points="232.69,-277.7 237.5,-268.26 227.85,-272.64 232.69,-277.7"/>
</g>
<!-- zerorpc_heartbeat -->
<g id="node10" class="node">
<title>zerorpc_heartbeat</title><style>.edge>path:hover{stroke-width:8}</style>
<ellipse fill="#c43131" stroke="black" cx="100.5" cy="-250.07" rx="45.01" ry="21.43"/>
<text text-anchor="middle" x="100.5" y="-253.07" font-family="Helvetica,sans-Serif" font-size="10.00" fill="#ffffff">zerorpc.</text>
<text text-anchor="middle" x="100.5" y="-242.07" font-family="Helvetica,sans-Serif" font-size="10.00" fill="#ffffff">heartbeat</text>
</g>
<!-- zerorpc_channel_base&#45;&gt;zerorpc_heartbeat -->
<g id="edge5" class="edge">
<title>zerorpc_channel_base&#45;&gt;zerorpc_heartbeat</title><style>.edge>path:hover{stroke-width:8}</style>
<path fill="none" stroke="black" d="M156.57,-308.21C147.21,-298.67 135.79,-287.03 125.7,-276.75"/>
<polygon fill="#db2f2f" stroke="black" points="128.14,-274.24 118.64,-269.55 123.15,-279.14 128.14,-274.24"/>
</g>
<!-- zerorpc_context -->
<g id="node4" class="node">
<title>zerorpc_context</title><style>.edge>path:hover{stroke-width:8}</style>
<polygon fill="blue" stroke="black" points="352.5,-346.49 296.5,-346.49 296.5,-310.49 352.5,-310.49 352.5,-346.49"/>
<text text-anchor="middle" x="324.5" y="-331.49" font-family="Helvetica,sans-Serif" font-size="10.00" fill="white">zerorpc.</text>
<text text-anchor="middle" x="324.5" y="-320.49" font-family="Helvetica,sans-Serif" font-size="10.00" fill="white">context</text>
</g>
<!-- zerorpc_context&#45;&gt;zerorpc -->
<g id="edge6" class="edge">
<title>zerorpc_context&#45;&gt;zerorpc</title><style>.edge>path:hover{stroke-width:8}</style>
<path fill="none" stroke="black" d="M352.79,-326.67C391.43,-323.95 460.16,-313.09 497.5,-271.28 505.08,-262.78 536.11,-103.23 532.5,-94.21"/>
</g>
<!-- zerorpc_context&#45;&gt;zerorpc_core -->
<g id="edge7" class="edge">
<title>zerorpc_context&#45;&gt;zerorpc_core</title><style>.edge>path:hover{stroke-width:8}</style>
<path fill="none" stroke="black" d="M342.5,-249.07C347.25,-211.43 404.84,-201.73 380.5,-172.64"/>
<path fill="none" stroke="black" d="M380.5,-170.64C372.39,-160.95 371.49,-156.65 360.5,-150.43 303.23,-118 227.62,-104.14 179.02,-98.32"/>
<polygon fill="blue" stroke="black" points="179.41,-94.84 169.08,-97.19 178.62,-101.79 179.41,-94.84"/>
</g>
<!-- zerorpc_context&#45;&gt;zerorpc_events -->
<g id="edge8" class="edge">
<title>zerorpc_context&#45;&gt;zerorpc_events</title><style>.edge>path:hover{stroke-width:8}</style>
<path fill="none" stroke="black" d="M308.84,-310.15C299.6,-299.92 287.76,-286.8 277.58,-275.53"/>
<polygon fill="blue" stroke="black" points="280.15,-273.15 270.85,-268.08 274.96,-277.84 280.15,-273.15"/>
</g>
<!-- zerorpc_socket -->
<g id="node12" class="node">
<title>zerorpc_socket</title><style>.edge>path:hover{stroke-width:8}</style>
<polygon fill="blue" stroke="black" points="352,-189.64 265,-189.64 265,-153.64 352,-153.64 352,-189.64"/>
<text text-anchor="middle" x="308.5" y="-169.14" font-family="Helvetica,sans-Serif" font-size="10.00" fill="white">zerorpc.socket</text>
</g>
<!-- zerorpc_context&#45;&gt;zerorpc_socket -->
<g id="edge9" class="edge">
<title>zerorpc_context&#45;&gt;zerorpc_socket</title><style>.edge>path:hover{stroke-width:8}</style>
<path fill="none" stroke="black" d="M329.63,-310.38C333.97,-295.02 339.89,-271.76 342.5,-251.07"/>
<path fill="none" stroke="black" d="M342.5,-249.07C344.77,-231.05 336.71,-212.4 327.87,-198.03"/>
<polygon fill="blue" stroke="black" points="330.79,-196.09 322.35,-189.68 324.95,-199.96 330.79,-196.09"/>
</g>
<!-- zerorpc_core&#45;&gt;zerorpc -->
<g id="edge10" class="edge">
<title>zerorpc_core&#45;&gt;zerorpc</title><style>.edge>path:hover{stroke-width:8}</style>
<path fill="none" stroke="black" d="M169.25,-78.1C205.54,-64.88 259.36,-45.27 294.93,-32.32"/>
<polygon fill="blue" stroke="black" points="296.24,-35.57 304.44,-28.85 293.85,-28.99 296.24,-35.57"/>
</g>
<!-- zerorpc_decorators -->
<g id="node6" class="node">
<title>zerorpc_decorators</title><style>.edge>path:hover{stroke-width:8}</style>
<ellipse fill="#cc3333" stroke="black" cx="456.5" cy="-171.64" rx="48.17" ry="21.43"/>
<text text-anchor="middle" x="456.5" y="-174.64" font-family="Helvetica,sans-Serif" font-size="10.00" fill="#ffffff">zerorpc.</text>
<text text-anchor="middle" x="456.5" y="-163.64" font-family="Helvetica,sans-Serif" font-size="10.00" fill="#ffffff">decorators</text>
</g>
<!-- zerorpc_decorators&#45;&gt;zerorpc -->
<g id="edge11" class="edge">
<title>zerorpc_decorators&#45;&gt;zerorpc</title><style>.edge>path:hover{stroke-width:8}</style>
<path fill="none" stroke="black" d="M489.67,-155.85C514.67,-142.32 543,-120.44 532.5,-94.21"/>
<path fill="none" stroke="black" d="M532.5,-92.21C507.89,-30.73 420.04,-19.38 368.99,-18.15"/>
<polygon fill="#cc3333" stroke="black" points="368.73,-14.65 358.69,-18.03 368.65,-21.65 368.73,-14.65"/>
</g>
<!-- zerorpc_decorators&#45;&gt;zerorpc_core -->
<g id="edge12" class="edge">
<title>zerorpc_decorators&#45;&gt;zerorpc_core</title><style>.edge>path:hover{stroke-width:8}</style>
<path fill="none" stroke="black" d="M419.64,-157.92C411.41,-155.28 402.7,-152.63 394.5,-150.43 320.09,-130.44 232.38,-112.94 179.13,-102.98"/>
<polygon fill="#cc3333" stroke="black" points="179.75,-99.53 169.28,-101.14 178.47,-106.41 179.75,-99.53"/>
</g>
<!-- zerorpc_events&#45;&gt;zerorpc -->
<g id="edge13" class="edge">
<title>zerorpc_events&#45;&gt;zerorpc</title><style>.edge>path:hover{stroke-width:8}</style>
<path fill="none" stroke="black" d="M246.42,-232.05C234.01,-210.29 209.78,-172.73 179.5,-150.43 133.37,-116.45 50.75,-150.07 63.5,-94.21"/>
</g>
<!-- zerorpc_events&#45;&gt;zerorpc_socket -->
<g id="edge14" class="edge">
<title>zerorpc_events&#45;&gt;zerorpc_socket</title><style>.edge>path:hover{stroke-width:8}</style>
<path fill="none" stroke="black" d="M267.52,-231.72C274.42,-221.78 283.19,-209.13 290.85,-198.08"/>
<polygon fill="blue" stroke="black" points="293.88,-199.86 296.7,-189.65 288.13,-195.87 293.88,-199.86"/>
</g>
<!-- zerorpc_exceptions -->
<g id="node8" class="node">
<title>zerorpc_exceptions</title><style>.edge>path:hover{stroke-width:8}</style>
<ellipse fill="#f31616" stroke="black" cx="49.5" cy="-328.49" rx="49.49" ry="21.43"/>
<text text-anchor="middle" x="49.5" y="-331.49" font-family="Helvetica,sans-Serif" font-size="10.00" fill="#ffffff">zerorpc.</text>
<text text-anchor="middle" x="49.5" y="-320.49" font-family="Helvetica,sans-Serif" font-size="10.00" fill="#ffffff">exceptions</text>
</g>
<!-- zerorpc_exceptions&#45;&gt;zerorpc -->
<g id="edge15" class="edge">
<title>zerorpc_exceptions&#45;&gt;zerorpc</title><style>.edge>path:hover{stroke-width:8}</style>
<path fill="none" stroke="black" d="M37.69,-307.83C29.9,-292.66 21.64,-270.96 24.5,-251.07"/>
<path fill="none" stroke="black" d="M24.5,-249.07C29.33,-215.44 12.12,-204.27 24.5,-172.64"/>
<path fill="none" stroke="black" d="M24.5,-170.64C38.4,-135.13 54.37,-131.24 63.5,-94.21"/>
<path fill="none" stroke="black" d="M63.5,-92.21C74.7,-46.78 222.89,-28.16 293.97,-21.81"/>
<polygon fill="#f31616" stroke="black" points="294.61,-25.26 304.27,-20.92 294.01,-18.29 294.61,-25.26"/>
</g>
<!-- zerorpc_exceptions&#45;&gt;zerorpc_channel -->
<g id="edge16" class="edge">
<title>zerorpc_exceptions&#45;&gt;zerorpc_channel</title><style>.edge>path:hover{stroke-width:8}</style>
<path fill="none" stroke="black" d="M24.5,-249.07C28.98,-217.93 59.7,-198.1 86.92,-186.47"/>
<polygon fill="#f31616" stroke="black" points="88.37,-189.65 96.36,-182.69 85.77,-183.16 88.37,-189.65"/>
</g>
<!-- zerorpc_exceptions&#45;&gt;zerorpc_core -->
<g id="edge17" class="edge">
<title>zerorpc_exceptions&#45;&gt;zerorpc_core</title><style>.edge>path:hover{stroke-width:8}</style>
<path fill="none" stroke="black" d="M24.5,-170.64C34.68,-144.62 59.6,-125.95 82.72,-113.58"/>
<polygon fill="#f31616" stroke="black" points="84.45,-116.62 91.79,-108.98 81.29,-110.38 84.45,-116.62"/>
</g>
<!-- zerorpc_exceptions&#45;&gt;zerorpc_events -->
<g id="edge18" class="edge">
<title>zerorpc_exceptions&#45;&gt;zerorpc_events</title><style>.edge>path:hover{stroke-width:8}</style>
<path fill="none" stroke="black" d="M85.85,-314C117.87,-302.12 164.95,-284.66 201.4,-271.14"/>
<polygon fill="#f31616" stroke="black" points="202.74,-274.37 210.9,-267.61 200.3,-267.81 202.74,-274.37"/>
</g>
<!-- zerorpc_exceptions&#45;&gt;zerorpc_heartbeat -->
<g id="edge19" class="edge">
<title>zerorpc_exceptions&#45;&gt;zerorpc_heartbeat</title><style>.edge>path:hover{stroke-width:8}</style>
<path fill="none" stroke="black" d="M62.63,-307.81C68.51,-299.01 75.54,-288.47 81.94,-278.88"/>
<polygon fill="#f31616" stroke="black" points="84.95,-280.68 87.58,-270.42 79.12,-276.79 84.95,-280.68"/>
</g>
<!-- zerorpc_gevent_zmq -->
<g id="node9" class="node">
<title>zerorpc_gevent_zmq</title><style>.edge>path:hover{stroke-width:8}</style>
<ellipse fill="#db2f2f" stroke="black" cx="324.5" cy="-406.92" rx="54.39" ry="21.43"/>
<text text-anchor="middle" x="324.5" y="-409.92" font-family="Helvetica,sans-Serif" font-size="10.00" fill="#ffffff">zerorpc.</text>
<text text-anchor="middle" x="324.5" y="-398.92" font-family="Helvetica,sans-Serif" font-size="10.00" fill="#ffffff">gevent_zmq</text>
</g>
<!-- zerorpc_gevent_zmq&#45;&gt;zerorpc_context -->
<g id="edge20" class="edge">
<title>zerorpc_gevent_zmq&#45;&gt;zerorpc_context</title><style>.edge>path:hover{stroke-width:8}</style>
<path fill="none" stroke="black" d="M324.5,-385.44C324.5,-376.7 324.5,-366.37 324.5,-356.98"/>
<polygon fill="#db2f2f" stroke="black" points="328,-356.92 324.5,-346.92 321,-356.92 328,-356.92"/>
</g>
<!-- zerorpc_gevent_zmq&#45;&gt;zerorpc_core -->
<g id="edge21" class="edge">
<title>zerorpc_gevent_zmq&#45;&gt;zerorpc_core</title><style>.edge>path:hover{stroke-width:8}</style>
<path fill="none" stroke="black" d="M340.53,-386.61C348.2,-376.3 356.72,-363.01 361.5,-349.71 374.86,-312.46 405.9,-202.99 380.5,-172.64"/>
</g>
<!-- zerorpc_gevent_zmq&#45;&gt;zerorpc_events -->
<g id="edge22" class="edge">
<title>zerorpc_gevent_zmq&#45;&gt;zerorpc_events</title><style>.edge>path:hover{stroke-width:8}</style>
<path fill="none" stroke="black" d="M309.77,-386.4C302.36,-375.92 293.67,-362.55 287.5,-349.71 276.34,-326.49 267.66,-298.42 262.17,-278.17"/>
<polygon fill="#db2f2f" stroke="black" points="265.52,-277.14 259.6,-268.36 258.75,-278.92 265.52,-277.14"/>
</g>
<!-- zerorpc_heartbeat&#45;&gt;zerorpc -->
<g id="edge23" class="edge">
<title>zerorpc_heartbeat&#45;&gt;zerorpc</title><style>.edge>path:hover{stroke-width:8}</style>
<path fill="none" stroke="black" d="M89.46,-228.99C74.61,-199.43 51.41,-142.48 63.5,-94.21"/>
</g>
<!-- zerorpc_heartbeat&#45;&gt;zerorpc_core -->
<g id="edge24" class="edge">
<title>zerorpc_heartbeat&#45;&gt;zerorpc_core</title><style>.edge>path:hover{stroke-width:8}</style>
<path fill="none" stroke="black" d="M133,-235.1C150.18,-225.84 169.7,-211.85 179.5,-192.85 188.14,-176.09 186.11,-168.08 179.5,-150.43 175.06,-138.59 166.88,-127.6 158.46,-118.54"/>
<polygon fill="#c43131" stroke="black" points="160.92,-116.05 151.4,-111.4 155.94,-120.97 160.92,-116.05"/>
</g>
<!-- zerorpc_patterns -->
<g id="node11" class="node">
<title>zerorpc_patterns</title><style>.edge>path:hover{stroke-width:8}</style>
<ellipse fill="#ce3b3b" stroke="black" cx="448.5" cy="-250.07" rx="40.11" ry="21.43"/>
<text text-anchor="middle" x="448.5" y="-253.07" font-family="Helvetica,sans-Serif" font-size="10.00" fill="#ffffff">zerorpc.</text>
<text text-anchor="middle" x="448.5" y="-242.07" font-family="Helvetica,sans-Serif" font-size="10.00" fill="#ffffff">patterns</text>
</g>
<!-- zerorpc_patterns&#45;&gt;zerorpc_core -->
<g id="edge25" class="edge">
<title>zerorpc_patterns&#45;&gt;zerorpc_core</title><style>.edge>path:hover{stroke-width:8}</style>
<path fill="none" stroke="black" d="M431.41,-230.5C417.46,-215.19 397.37,-192.8 380.5,-172.64"/>
</g>
<!-- zerorpc_patterns&#45;&gt;zerorpc_decorators -->
<g id="edge26" class="edge">
<title>zerorpc_patterns&#45;&gt;zerorpc_decorators</title><style>.edge>path:hover{stroke-width:8}</style>
<path fill="none" stroke="black" d="M450.64,-228.59C451.46,-220.73 452.42,-211.58 453.32,-202.99"/>
<polygon fill="#ce3b3b" stroke="black" points="456.82,-203.22 454.38,-192.91 449.85,-202.49 456.82,-203.22"/>
</g>
<!-- zerorpc_socket&#45;&gt;zerorpc -->
<g id="edge27" class="edge">
<title>zerorpc_socket&#45;&gt;zerorpc</title><style>.edge>path:hover{stroke-width:8}</style>
<path fill="none" stroke="black" d="M264.98,-154.82C260.12,-153.25 255.22,-151.75 250.5,-150.43 166.93,-127.01 44.19,-178.82 63.5,-94.21"/>
</g>
<!-- zerorpc_socket&#45;&gt;zerorpc_core -->
<g id="edge28" class="edge">
<title>zerorpc_socket&#45;&gt;zerorpc_core</title><style>.edge>path:hover{stroke-width:8}</style>
<path fill="none" stroke="black" d="M268.55,-153.49C241.84,-142.02 206.57,-126.88 178.36,-114.76"/>
<polygon fill="blue" stroke="black" points="179.66,-111.51 169.09,-110.78 176.9,-117.94 179.66,-111.51"/>
</g>
<!-- zerorpc_version -->
<g id="node13" class="node">
<title>zerorpc_version</title><style>.edge>path:hover{stroke-width:8}</style>
<ellipse fill="#c24747" stroke="black" cx="600.5" cy="-93.21" rx="39.7" ry="21.43"/>
<text text-anchor="middle" x="600.5" y="-96.21" font-family="Helvetica,sans-Serif" font-size="10.00" fill="#ffffff">zerorpc.</text>
<text text-anchor="middle" x="600.5" y="-85.21" font-family="Helvetica,sans-Serif" font-size="10.00" fill="#ffffff">version</text>
</g>
<!-- zerorpc_version&#45;&gt;zerorpc -->
<g id="edge29" class="edge">
<title>zerorpc_version&#45;&gt;zerorpc</title><style>.edge>path:hover{stroke-width:8}</style>
<path fill="none" stroke="black" d="M569.59,-79.94C562.09,-77.16 554.05,-74.34 546.5,-72 484.91,-52.95 411.77,-36.12 368.62,-26.77"/>
<polygon fill="#c24747" stroke="black" points="369.1,-23.29 358.59,-24.62 367.63,-30.14 369.1,-23.29"/>
</g>
</g>
</svg>
